<?xml version="1.0" encoding="utf-8"?>
<!-- Generator: Adobe Illustrator 27.7.0, SVG Export Plug-In . SVG Version: 6.00 Build 0)  -->
<svg version="1.1" id="Layer_1" xmlns="http://www.w3.org/2000/svg" xmlns:xlink="http://www.w3.org/1999/xlink" x="0px" y="0px"
	 viewBox="0 0 841.8 96.34" style="enable-background:new 0 0 841.8 96.34;" xml:space="preserve">
<style type="text/css">
	.st0{fill:#003566;}
	.st1{fill:#028090;}
</style>
<g>
	<g>
		<path class="st0" d="M33.06,80.51c-4.49,0-8.7-0.73-12.62-2.18c-3.92-1.46-7.33-3.57-10.24-6.34c-2.85-2.71-5.1-6.06-6.74-10.06
			C1.82,57.93,1,53.54,1,48.75C1,44,1.83,39.59,3.48,35.54c1.66-4.05,3.98-7.56,6.98-10.53c2.94-2.91,6.47-5.17,10.59-6.77
			c4.12-1.6,8.53-2.4,13.22-2.4c3.4,0,6.5,0.42,9.29,1.25c2.79,0.84,5.16,1.77,7.09,2.81l2.68-2.38h3.76l0.39,22.38h-3.8
			c-2.16-6.84-4.75-11.86-7.77-15.07c-3.02-3.2-6.7-4.81-11.05-4.81c-5.41,0-9.52,2.39-12.34,7.16c-2.82,4.77-4.23,11.48-4.23,20.1
			c0,4.88,0.48,9.04,1.45,12.49c0.96,3.45,2.22,6.22,3.78,8.33c1.67,2.19,3.64,3.8,5.91,4.83c2.27,1.02,4.79,1.54,7.55,1.54
			c4.03,0,7.62-1.09,10.77-3.28c3.15-2.19,6.02-5.5,8.61-9.94l3.72,2.25c-1.24,2.54-2.65,4.8-4.23,6.8c-1.58,2-3.41,3.72-5.49,5.16
			c-2.28,1.58-4.79,2.82-7.54,3.72C40.05,80.06,36.8,80.51,33.06,80.51z"/>
		<path class="st0" d="M133.1,20.97c-0.95,0.09-1.86,0.26-2.72,0.52c-0.86,0.26-1.76,0.66-2.68,1.21c-1.24,0.72-2.2,1.49-2.87,2.31
			c-0.68,0.82-1.35,1.95-2.01,3.39c-0.89,1.99-2.15,4.89-3.76,8.71c-1.61,3.82-3.46,8.16-5.53,13.03
			c-1.84,4.38-3.84,9.17-5.98,14.39c-2.15,5.21-4.2,10.21-6.16,14.99H92.7c-4.03-9.88-8.14-19.92-12.31-30.11
			c-4.18-10.2-7.12-17.28-8.81-21.26c-0.66-1.44-1.3-2.53-1.92-3.26c-0.62-0.73-1.61-1.49-2.96-2.27c-0.98-0.55-1.84-0.93-2.59-1.14
			c-0.75-0.22-1.74-0.41-2.98-0.58v-3.37h33.23v3.28c-3.11,0.37-5.22,0.77-6.33,1.19c-1.11,0.42-1.66,0.94-1.66,1.58
			c0,0.32,0.05,0.66,0.15,1.02c0.1,0.36,0.25,0.84,0.45,1.45c0.92,2.53,2.59,6.67,5.01,12.41c2.42,5.74,6,14.5,10.76,26.26
			c2.91-7.16,5.33-13.22,7.26-18.17c1.93-4.95,3.63-9.32,5.1-13.12c0.72-1.84,1.32-3.56,1.79-5.16c0.48-1.6,0.71-2.8,0.71-3.61
			c0-0.92-0.66-1.69-1.99-2.31c-1.32-0.62-3.77-1.07-7.34-1.36v-3.46h24.84V20.97z"/>
		<path class="st0" d="M207.35,78.82h-23.53c-4.06-6.22-7.43-11.18-10.12-14.86c-2.69-3.69-6.04-7.95-10.04-12.79h-2.37v18.62
			c0,1.04,0.19,1.92,0.58,2.64c0.39,0.72,1.13,1.33,2.22,1.81c0.55,0.23,1.4,0.47,2.57,0.71c1.17,0.25,2.17,0.41,3,0.5v3.37h-32.71
			v-3.37c0.84-0.09,1.94-0.21,3.31-0.37c1.37-0.16,2.34-0.35,2.92-0.58c1.09-0.46,1.83-1.04,2.2-1.75c0.37-0.71,0.56-1.61,0.56-2.7
			V26.8c0-1.04-0.16-1.9-0.48-2.59c-0.32-0.69-1.08-1.3-2.29-1.81c-0.92-0.37-2.01-0.69-3.26-0.95c-1.25-0.26-2.24-0.45-2.96-0.56
			v-3.37h34.39c7.69,0,13.53,1.2,17.52,3.61c3.99,2.41,5.98,6.04,5.98,10.91c0,4.29-1.23,7.74-3.69,10.35
			c-2.46,2.61-6.21,4.64-11.26,6.11c1.96,2.54,4.24,5.47,6.85,8.81c2.61,3.34,5.32,6.75,8.14,10.24c0.89,1.12,2.11,2.5,3.65,4.13
			c1.54,1.63,2.9,2.63,4.08,3c0.66,0.2,1.51,0.37,2.53,0.52c1.02,0.14,1.75,0.23,2.18,0.26V78.82z M177.92,33.24
			c0-4.09-1.14-7.08-3.43-8.97c-2.29-1.89-5.55-2.83-9.79-2.83h-3.41v25.66h3.28c4.23,0,7.52-1.11,9.85-3.33
			C176.76,41.57,177.92,38.05,177.92,33.24z"/>
		<path class="st0" d="M235.88,80.51c-3.74,0-7.24-0.47-10.48-1.4s-5.98-2.04-8.23-3.31l-2.98,3.02h-3.67l-0.56-22.16h3.72
			c0.84,2.11,1.9,4.33,3.2,6.67c1.3,2.34,2.79,4.43,4.49,6.28c1.76,1.93,3.72,3.51,5.9,4.72c2.17,1.21,4.72,1.82,7.63,1.82
			c3.92,0,6.92-0.96,9.01-2.88c2.09-1.92,3.13-4.33,3.13-7.24c0-2.39-0.89-4.4-2.66-6.03c-1.77-1.63-4.51-3.04-8.23-4.22
			c-2.42-0.78-4.64-1.5-6.68-2.17c-2.03-0.67-3.94-1.35-5.72-2.04c-4.12-1.64-7.18-3.99-9.18-7.05c-2-3.06-3-6.47-3-10.25
			c0-2.39,0.52-4.69,1.56-6.9c1.04-2.21,2.55-4.19,4.54-5.95c1.9-1.64,4.33-2.98,7.3-4.02c2.97-1.04,6.19-1.56,9.68-1.56
			c3.4,0,6.58,0.48,9.55,1.43c2.97,0.95,5.3,1.9,7,2.85l2.64-2.59h3.76l0.35,20.91h-3.72c-0.86-2.25-1.88-4.55-3.05-6.91
			c-1.17-2.35-2.4-4.31-3.69-5.87c-1.41-1.67-3.04-3.01-4.88-4.01c-1.84-1-4-1.49-6.48-1.49c-3.11,0-5.65,0.88-7.63,2.64
			c-1.97,1.76-2.96,3.94-2.96,6.53c0,2.45,0.86,4.46,2.57,6.02c1.71,1.56,4.39,2.93,8.01,4.11c2.13,0.72,4.31,1.44,6.52,2.16
			c2.22,0.72,4.19,1.41,5.92,2.08c4.18,1.62,7.35,3.84,9.53,6.68c2.17,2.84,3.26,6.37,3.26,10.58c0,2.65-0.62,5.22-1.86,7.7
			c-1.24,2.48-2.91,4.54-5.01,6.19c-2.3,1.82-4.97,3.22-7.99,4.2S239.91,80.51,235.88,80.51z"/>
	</g>
	<g>
		<path class="st0" d="M340.09,18.09c-1.56,0-2.95,0.43-4.18,1.3c-1.23,0.87-2.21,2.14-2.93,3.82s-1.08,3.51-1.08,5.48
			c0,1.67,0.44,3.01,1.31,4.01c0.87,1,2.07,1.5,3.6,1.5c1.24,0,2.69-0.26,4.32-0.77v2c-0.77,0.28-1.5,0.48-2.2,0.6
			s-1.54,0.19-2.52,0.19c-2.17,0-3.87-0.67-5.1-2.01c-1.24-1.34-1.85-3.16-1.85-5.47c0-2.34,0.47-4.51,1.42-6.52
			c0.94-2.01,2.21-3.54,3.81-4.6c1.59-1.06,3.4-1.58,5.41-1.58c1.76,0,3.32,0.36,4.67,1.07l-0.93,1.89
			C342.6,18.4,341.35,18.09,340.09,18.09z"/>
		<path class="st0" d="M355.37,35.96h-9.87l4.15-19.63h9.87l-0.43,2.05h-7.6l-1.32,6.3h7.08l-0.39,2.04h-7.1l-1.53,7.2h7.59
			L355.37,35.96z"/>
		<path class="st0" d="M374.52,35.96h-2.43l-6.18-16.42h-0.08c-0.29,1.98-0.62,3.85-0.99,5.61l-2.31,10.81h-2.18l4.15-19.63h2.42
			l6.16,16.38h0.08c0.27-2,0.59-3.82,0.97-5.44l2.34-10.94h2.2L374.52,35.96z"/>
		<path class="st0" d="M385.9,35.96h-2.31l3.72-17.6h-5.45l0.44-2.03h13.23l-0.4,2.03h-5.48L385.9,35.96z"/>
		<path class="st0" d="M404.91,35.96h-9.87l4.15-19.63h9.87l-0.43,2.05h-7.6l-1.32,6.3h7.08l-0.39,2.04h-7.1l-1.53,7.2h7.59
			L404.91,35.96z"/>
		<path class="st0" d="M413.94,27.8l-1.73,8.16h-2.28l4.15-19.63h4.3c3.99,0,5.99,1.64,5.99,4.91c0,3.12-1.65,5.12-4.94,6.03
			l3.21,8.69h-2.5l-2.81-8.16H413.94z M415.91,18.33c-0.91,4.42-1.43,6.92-1.56,7.51h2.26c1.73,0,3.06-0.38,3.99-1.14
			s1.4-1.85,1.4-3.28c0-1.08-0.3-1.87-0.91-2.36s-1.59-0.73-2.95-0.73H415.91z"/>
		<path class="st0" d="M436.67,35.96h-2.31l4.15-19.63h9.87l-0.4,2.05h-7.63l-1.48,7.16h7.09l-0.43,2.05h-7.1L436.67,35.96z"/>
		<path class="st0" d="M465.96,23.78c0,2.41-0.39,4.56-1.18,6.46c-0.79,1.9-1.92,3.38-3.38,4.42c-1.47,1.04-3.17,1.56-5.09,1.56
			c-2.29,0-4.08-0.67-5.36-2.01c-1.28-1.34-1.92-3.22-1.92-5.63c0-2.36,0.43-4.52,1.29-6.47c0.86-1.95,2.04-3.46,3.54-4.51
			c1.5-1.06,3.19-1.58,5.07-1.58c2.18,0,3.9,0.69,5.16,2.07C465.33,19.47,465.96,21.37,465.96,23.78z M458.75,18.06
			c-1.41,0-2.66,0.45-3.77,1.36c-1.11,0.9-1.97,2.16-2.58,3.77c-0.61,1.61-0.92,3.39-0.92,5.34c0,1.78,0.44,3.17,1.32,4.17
			c0.88,1,2.07,1.5,3.57,1.5c1.36,0,2.58-0.44,3.66-1.31c1.08-0.87,1.93-2.12,2.56-3.75c0.63-1.63,0.94-3.43,0.94-5.41
			c0-1.78-0.42-3.17-1.26-4.17C461.41,18.56,460.24,18.06,458.75,18.06z"/>
		<path class="st0" d="M472.81,27.8l-1.73,8.16h-2.28l4.15-19.63h4.3c3.99,0,5.99,1.64,5.99,4.91c0,3.12-1.65,5.12-4.94,6.03
			l3.21,8.69H479l-2.81-8.16H472.81z M474.79,18.33c-0.91,4.42-1.43,6.92-1.56,7.51h2.26c1.73,0,3.06-0.38,3.99-1.14
			s1.4-1.85,1.4-3.28c0-1.08-0.3-1.87-0.91-2.36s-1.59-0.73-2.95-0.73H474.79z"/>
		<path class="st0" d="M345.66,53.79h5.6l-8.9,26.17h-6.05l-8.88-26.17h5.6l4.92,15.58c0.27,0.92,0.56,1.99,0.85,3.21
			c0.29,1.22,0.47,2.07,0.55,2.55c0.13-1.1,0.58-3.02,1.34-5.76L345.66,53.79z"/>
		<path class="st0" d="M355.66,79.96V53.79h5.55v26.17H355.66z"/>
		<path class="st0" d="M380.02,58.03c-2.09,0-3.71,0.78-4.85,2.35s-1.72,3.76-1.72,6.56c0,5.84,2.19,8.75,6.57,8.75
			c1.84,0,4.06-0.46,6.68-1.38v4.65c-2.15,0.9-4.55,1.34-7.2,1.34c-3.81,0-6.72-1.15-8.74-3.46c-2.02-2.31-3.03-5.62-3.03-9.95
			c0-2.72,0.5-5.1,1.49-7.15s2.41-3.62,4.27-4.71c1.86-1.09,4.03-1.64,6.53-1.64c2.54,0,5.1,0.61,7.66,1.84l-1.79,4.51
			c-0.98-0.47-1.96-0.87-2.95-1.22C381.94,58.2,380.97,58.03,380.02,58.03z"/>
		<path class="st0" d="M408.44,79.96h-15.07V53.79h15.07v4.55h-9.52v5.75h8.86v4.55h-8.86v6.75h9.52V79.96z"/>
		<path class="st0" d="M431.17,69.92v10.04h-5.55V53.79h7.63c3.56,0,6.19,0.65,7.9,1.94c1.71,1.3,2.56,3.26,2.56,5.9
			c0,1.54-0.42,2.91-1.27,4.11c-0.85,1.2-2.05,2.14-3.6,2.82c3.94,5.88,6.5,9.69,7.7,11.4h-6.16l-6.25-10.04H431.17z M431.17,65.4
			h1.79c1.75,0,3.05-0.29,3.88-0.88c0.84-0.58,1.25-1.5,1.25-2.76c0-1.24-0.43-2.12-1.28-2.65c-0.85-0.52-2.18-0.79-3.97-0.79h-1.68
			V65.4z"/>
		<path class="st0" d="M466,79.96h-15.07V53.79H466v4.55h-9.52v5.75h8.86v4.55h-8.86v6.75H466V79.96z"/>
		<path class="st0" d="M488.01,72.69c0,2.36-0.85,4.23-2.55,5.59c-1.7,1.36-4.07,2.04-7.1,2.04c-2.79,0-5.26-0.52-7.41-1.58v-5.16
			c1.77,0.79,3.26,1.34,4.49,1.67c1.22,0.32,2.34,0.48,3.36,0.48c1.22,0,2.15-0.23,2.8-0.7s0.98-1.16,0.98-2.08
			c0-0.51-0.14-0.97-0.43-1.37c-0.29-0.4-0.71-0.78-1.26-1.15c-0.56-0.37-1.69-0.96-3.39-1.77c-1.6-0.75-2.8-1.47-3.6-2.17
			c-0.8-0.69-1.44-1.5-1.92-2.42c-0.48-0.92-0.72-1.99-0.72-3.22c0-2.32,0.78-4.14,2.35-5.46c1.57-1.32,3.74-1.99,6.51-1.99
			c1.36,0,2.66,0.16,3.89,0.48s2.53,0.78,3.88,1.36l-1.79,4.31c-1.4-0.57-2.55-0.97-3.46-1.2c-0.91-0.23-1.81-0.34-2.69-0.34
			c-1.05,0-1.86,0.24-2.42,0.73c-0.56,0.49-0.84,1.13-0.84,1.92c0,0.49,0.11,0.92,0.34,1.28c0.23,0.36,0.59,0.72,1.08,1.06
			c0.5,0.34,1.67,0.95,3.52,1.83c2.45,1.17,4.12,2.34,5.03,3.52C487.55,69.54,488.01,70.98,488.01,72.69z"/>
		<path class="st0" d="M508.93,79.96h-15.07V53.79h15.07v4.55h-9.52v5.75h8.86v4.55h-8.86v6.75h9.52V79.96z"/>
		<path class="st0" d="M531.51,79.96l-1.9-6.23h-9.54l-1.9,6.23h-5.98l9.24-26.28h6.79l9.27,26.28H531.51z M528.29,69.07
			c-1.75-5.65-2.74-8.84-2.96-9.58c-0.22-0.74-0.38-1.32-0.47-1.75c-0.39,1.53-1.52,5.31-3.38,11.33H528.29z"/>
		<path class="st0" d="M547.43,69.92v10.04h-5.55V53.79h7.63c3.56,0,6.19,0.65,7.89,1.94c1.71,1.3,2.56,3.26,2.56,5.9
			c0,1.54-0.42,2.91-1.27,4.11c-0.85,1.2-2.05,2.14-3.6,2.82c3.94,5.88,6.5,9.69,7.7,11.4h-6.16l-6.25-10.04H547.43z M547.43,65.4
			h1.79c1.75,0,3.05-0.29,3.89-0.88c0.83-0.58,1.25-1.5,1.25-2.76c0-1.24-0.43-2.12-1.28-2.65c-0.85-0.52-2.17-0.79-3.97-0.79h-1.68
			V65.4z"/>
		<path class="st0" d="M578.31,58.03c-2.09,0-3.71,0.78-4.85,2.35c-1.15,1.57-1.72,3.76-1.72,6.56c0,5.84,2.19,8.75,6.57,8.75
			c1.84,0,4.06-0.46,6.68-1.38v4.65c-2.15,0.9-4.55,1.34-7.2,1.34c-3.81,0-6.72-1.15-8.74-3.46c-2.02-2.31-3.03-5.62-3.03-9.95
			c0-2.72,0.5-5.1,1.49-7.15s2.41-3.62,4.27-4.71c1.86-1.09,4.03-1.64,6.53-1.64c2.54,0,5.1,0.61,7.66,1.84l-1.79,4.51
			c-0.98-0.47-1.96-0.87-2.95-1.22C580.23,58.2,579.26,58.03,578.31,58.03z"/>
		<path class="st0" d="M613.1,79.96h-5.53v-11.3H597.2v11.3h-5.55V53.79h5.55v10.26h10.37V53.79h5.53V79.96z"/>
		<path class="st0" d="M655.63,79.96h-6.75l-2.06-2.02c-2.28,1.59-4.86,2.38-7.73,2.38c-2.91,0-5.22-0.67-6.93-2
			c-1.71-1.34-2.56-3.15-2.56-5.42c0-1.63,0.36-3.03,1.08-4.18c0.72-1.15,1.96-2.23,3.71-3.23c-0.89-1.03-1.55-2.01-1.95-2.94
			c-0.41-0.94-0.61-1.96-0.61-3.07c0-1.81,0.7-3.28,2.09-4.39c1.39-1.11,3.25-1.67,5.58-1.67c2.22,0,4,0.52,5.33,1.55s2,2.41,2,4.14
			c0,1.42-0.41,2.72-1.24,3.89c-0.82,1.18-2.15,2.29-3.99,3.36l5.08,4.96c0.85-1.4,1.58-3.19,2.2-5.39h5.69
			c-0.43,1.61-1.02,3.18-1.77,4.72s-1.61,2.89-2.56,4.07L655.63,79.96z M635.35,72.37c0,1.03,0.38,1.84,1.15,2.45
			c0.77,0.61,1.76,0.91,2.96,0.91c1.5,0,2.86-0.36,4.06-1.09l-5.94-5.91c-0.69,0.53-1.24,1.07-1.64,1.65
			C635.55,70.95,635.35,71.62,635.35,72.37z M641.78,59.68c0-0.63-0.21-1.13-0.64-1.5c-0.43-0.36-0.98-0.55-1.67-0.55
			c-0.8,0-1.43,0.19-1.89,0.57c-0.46,0.38-0.69,0.93-0.69,1.63c0,1.05,0.57,2.21,1.7,3.47c1.03-0.57,1.81-1.14,2.36-1.69
			C641.5,61.06,641.78,60.42,641.78,59.68z"/>
		<path class="st0" d="M686.1,72.69c0,2.36-0.85,4.23-2.55,5.59c-1.7,1.36-4.07,2.04-7.1,2.04c-2.79,0-5.26-0.52-7.41-1.58v-5.16
			c1.77,0.79,3.26,1.34,4.49,1.67c1.22,0.32,2.34,0.48,3.36,0.48c1.22,0,2.15-0.23,2.8-0.7s0.98-1.16,0.98-2.08
			c0-0.51-0.14-0.97-0.43-1.37c-0.29-0.4-0.71-0.78-1.26-1.15c-0.56-0.37-1.69-0.96-3.39-1.77c-1.6-0.75-2.8-1.47-3.6-2.17
			c-0.8-0.69-1.44-1.5-1.92-2.42c-0.48-0.92-0.72-1.99-0.72-3.22c0-2.32,0.78-4.14,2.35-5.46c1.57-1.32,3.74-1.99,6.51-1.99
			c1.36,0,2.66,0.16,3.89,0.48s2.53,0.78,3.88,1.36l-1.79,4.31c-1.4-0.57-2.55-0.97-3.46-1.2c-0.91-0.23-1.81-0.34-2.69-0.34
			c-1.05,0-1.86,0.24-2.42,0.73c-0.56,0.49-0.84,1.13-0.84,1.92c0,0.49,0.11,0.92,0.34,1.28c0.23,0.36,0.59,0.72,1.08,1.06
			c0.5,0.34,1.67,0.95,3.52,1.83c2.45,1.17,4.12,2.34,5.03,3.52C685.65,69.54,686.1,70.98,686.1,72.69z"/>
		<path class="st0" d="M713.25,53.79v16.94c0,1.93-0.43,3.63-1.3,5.08c-0.87,1.46-2.12,2.57-3.75,3.35
			c-1.64,0.78-3.57,1.16-5.8,1.16c-3.37,0-5.98-0.86-7.84-2.59c-1.86-1.72-2.79-4.08-2.79-7.08V53.79h5.53v16.02
			c0,2.02,0.41,3.5,1.22,4.44s2.15,1.41,4.03,1.41c1.81,0,3.13-0.47,3.95-1.42c0.82-0.95,1.23-2.44,1.23-4.47V53.79H713.25z"/>
		<path class="st0" d="M738.84,61.95c0,2.82-0.88,4.97-2.64,6.46c-1.76,1.49-4.26,2.24-7.51,2.24h-2.38v9.31h-5.55V53.79h8.36
			c3.17,0,5.59,0.68,7.24,2.05C738.01,57.2,738.84,59.24,738.84,61.95z M726.31,66.1h1.83c1.71,0,2.98-0.34,3.83-1.01
			s1.27-1.66,1.27-2.95c0-1.3-0.36-2.26-1.07-2.88c-0.71-0.62-1.82-0.93-3.34-0.93h-2.52V66.1z"/>
		<path class="st0" d="M762.96,61.95c0,2.82-0.88,4.97-2.64,6.46c-1.76,1.49-4.26,2.24-7.51,2.24h-2.38v9.31h-5.55V53.79h8.36
			c3.17,0,5.59,0.68,7.24,2.05C762.14,57.2,762.96,59.24,762.96,61.95z M750.43,66.1h1.83c1.71,0,2.98-0.34,3.83-1.01
			s1.27-1.66,1.27-2.95c0-1.3-0.36-2.26-1.07-2.88c-0.71-0.62-1.82-0.93-3.34-0.93h-2.52V66.1z"/>
		<path class="st0" d="M792.76,66.84c0,4.33-1.07,7.66-3.22,9.99c-2.15,2.33-5.23,3.49-9.24,3.49c-4.01,0-7.09-1.16-9.24-3.49
			c-2.15-2.33-3.22-5.67-3.22-10.03c0-4.36,1.08-7.68,3.23-9.98c2.15-2.3,5.24-3.45,9.26-3.45c4.02,0,7.1,1.16,9.23,3.47
			S792.76,62.49,792.76,66.84z M773.66,66.84c0,2.92,0.55,5.13,1.67,6.61c1.11,1.48,2.77,2.22,4.98,2.22c4.43,0,6.64-2.94,6.64-8.83
			c0-5.9-2.2-8.84-6.61-8.84c-2.21,0-3.87,0.74-5,2.23C774.22,61.71,773.66,63.91,773.66,66.84z"/>
		<path class="st0" d="M804.84,69.92v10.04h-5.55V53.79h7.63c3.56,0,6.19,0.65,7.89,1.94c1.71,1.3,2.56,3.26,2.56,5.9
			c0,1.54-0.42,2.91-1.27,4.11c-0.85,1.2-2.05,2.14-3.6,2.82c3.94,5.88,6.5,9.69,7.7,11.4h-6.16l-6.25-10.04H804.84z M804.84,65.4
			h1.79c1.75,0,3.05-0.29,3.89-0.88c0.83-0.58,1.25-1.5,1.25-2.76c0-1.24-0.43-2.12-1.28-2.65c-0.85-0.52-2.17-0.79-3.97-0.79h-1.68
			V65.4z"/>
		<path class="st0" d="M834.69,79.96h-5.55V58.41h-7.11v-4.62h19.76v4.62h-7.11V79.96z"/>
	</g>
	<g>
		<rect x="294.51" class="st1" width="2" height="96.34"/>
	</g>
</g>
</svg>
